<?xml version="1.0" encoding="UTF-8" standalone="no"?>
<!DOCTYPE svg PUBLIC "-//W3C//DTD SVG 1.1//EN" "http://www.w3.org/Graphics/SVG/1.1/DTD/svg11.dtd">
<svg width="100%" height="100%" viewBox="0 0 256 256" version="1.1" xmlns="http://www.w3.org/2000/svg" xmlns:xlink="http://www.w3.org/1999/xlink" xml:space="preserve" xmlns:serif="http://www.serif.com/" style="fill-rule:evenodd;clip-rule:evenodd;stroke-linejoin:round;stroke-miterlimit:2;">
    <g transform="matrix(1,0,0,1,-496,-806)">
        <g id="Plan-de-travail2" serif:id="Plan de travail2" transform="matrix(0.179649,0,0,0.338624,496,550)">
            <rect x="0" y="756" width="1425" height="756" style="fill:none;"/>
            <g transform="matrix(4.821002,0,0,2.557669,94.696903,626.431641)">
                <g id="Z-square">
                    <path d="M37.763,129.506C37.769,129.417 37.342,118.271 42.677,107.588C46.166,100.602 50.954,96.695 51.873,95.945C67.971,82.811 72.026,85.443 192.5,85.299C216.489,85.27 222.709,83.17 221.209,93.454C209.428,174.213 77.499,215.823 62.952,287.581C61.675,293.879 65.766,292.538 79.5,292.47C161.166,292.066 171.936,294.954 186.239,286.062C208.477,272.236 207.385,248.76 214.709,255.248C218.327,258.454 216.216,305.883 168.503,306.754C166.183,306.796 42.071,306.791 39.484,306.734C31.708,306.561 35.75,290.638 37.475,283.494C54.165,214.369 144.752,176.649 179.037,124.184C187.985,110.49 190.792,101.032 190.699,100.452C190.501,99.219 185.01,99.205 184.504,99.204C176.903,99.185 100.855,98.99 89.493,99.195C52.164,99.869 46.61,133.094 43.339,135.231C38.113,138.645 37.787,130.145 37.763,129.506Z" style="fill:rgb(32,78,54);stroke:rgb(44,122,79);stroke-width:1.15px;"/>
                </g>
            </g>
        </g>
    </g>
</svg>
