<?xml version="1.0" encoding="UTF-8" standalone="no"?>
<!DOCTYPE svg PUBLIC "-//W3C//DTD SVG 1.1//EN" "http://www.w3.org/Graphics/SVG/1.1/DTD/svg11.dtd">
<svg width="100%" height="100%" viewBox="0 0 1232 308" version="1.1" xmlns="http://www.w3.org/2000/svg" xmlns:xlink="http://www.w3.org/1999/xlink" xml:space="preserve" xmlns:serif="http://www.serif.com/" style="fill-rule:evenodd;clip-rule:evenodd;stroke-linejoin:round;stroke-miterlimit:2;">
    <g transform="matrix(1,0,0,1,-102.068608,-388.931832)">
        <g id="Plan-de-travail1" serif:id="Plan de travail1" transform="matrix(5.566406,0,0,1.456647,-7637.109375,-1078.647399)">
            <rect x="1372" y="740.5" width="256" height="519" style="fill:none;"/>
            <g id="ZenPak-wordmark-2" serif:id="ZenPak wordmark 2" transform="matrix(0.179649,0,0,0.686508,1231.514386,649.194444)">
                <g transform="matrix(1.385742,0,0,1.385742,782.737072,442)">
                    <path d="M848.596,140.5C848.551,96.906 848.638,96.931 848.676,96.523C849.328,89.658 863.75,88.215 864.52,97.498C864.541,97.754 864.627,208.84 864.459,216.505C864.363,220.869 868.349,216.087 869.217,215.217C899.328,185.037 932.829,152.541 935.64,149.87C941.052,144.727 948.948,135.732 950.944,137.23C955.77,140.851 948.204,154.054 942.229,162.215C933.415,174.253 899.854,204.33 900.23,206.57C900.382,207.472 948.779,259.546 960.345,272.626C967.754,281.005 949.269,279.736 945.444,278.658C940.887,277.375 891.299,219.346 888.319,217.863C887.587,217.499 870.506,228.667 866.659,237.659C862.691,246.932 864.163,252.786 864.514,273.501C864.67,282.681 850.934,278.594 850.617,278.339C847.781,276.055 848.732,275.146 848.596,140.5Z" style="fill:white;"/>
                </g>
                <g transform="matrix(1.385742,0,0,1.385742,792.737072,438)">
                    <path d="M793.682,259.819C793.682,259.819 771.121,288.048 733.448,280.789C688.411,272.111 681.874,210.971 743.579,202C763.659,199.08 793.565,202.393 794.64,199.561C795.444,197.446 794.829,182.584 789.132,174.769C774.868,155.204 738.53,156.05 721.029,177.095C718.991,179.545 714.513,177.358 714.485,172.506C714.458,168.011 718.66,161.024 722.202,158.298C729.095,152.995 733.752,150.068 745.748,147.655C756.816,145.429 769.218,145.483 781.405,149.757C815.993,161.887 811.187,196.778 811.195,226.498C811.209,276.326 811.529,280.271 808.569,281.537C807.243,282.105 796.681,283.841 795.351,278.438C795.14,277.579 794.745,273.089 794.956,264.501C795.023,261.774 793.682,259.819 793.682,259.819ZM716.036,238.402C709.753,279.344 793.26,279.197 794.811,225.518C794.972,219.926 795.244,214.27 793.426,213.795C792.934,213.666 761.261,213.63 756.531,213.998C720.721,216.786 717.824,231.304 716.036,238.402Z" style="fill:white;"/>
                </g>
                <g transform="matrix(1.385742,0,0,1.385742,805.737072,442)">
                    <path d="M596.495,212.036C572.272,211.796 571.214,212.093 571.074,214.432C570.075,231.044 569.512,277.51 569.512,277.51C569.512,277.51 554.621,284.944 554.572,271.499C554.522,257.506 553.956,100.729 554.84,96.588C556.08,90.771 558.417,91.342 604.5,91.359C616.665,91.364 672.621,85.164 684.561,138.486C691.293,168.55 673.052,211.45 623.505,211.942C616.736,212.009 598.656,212.033 596.495,212.036ZM570.938,149.499C570.913,191.976 570.16,192.045 571.125,195.605C571.707,197.756 572.682,197.378 614.5,197.406C679.708,197.45 673.369,140.541 659.042,122.905C644.26,104.71 625.51,105.993 575.498,106.412C569.73,106.461 570.908,109.283 570.945,130.499C570.963,141.145 570.994,141.088 570.938,149.499Z" style="fill:white;"/>
                </g>
                <g transform="matrix(1.385742,0,0,1.385742,815.737072,442)">
                    <path d="M414.318,169.098C417.341,165.914 421.178,157.408 438.369,150.183C458.431,141.751 510.667,142.985 511.787,200.496C512.299,226.787 511.855,265.822 511.79,271.502C511.641,284.621 497.242,278.756 496.278,276.607C492.817,268.887 500.393,198.44 490.716,180.393C473.209,147.745 413.405,154.98 413.248,211.5C413.071,275.578 414.177,277.014 410.557,278.621C410.316,278.728 398.783,281.64 397.308,275.542C397.303,275.524 396.669,204.142 397.126,169.759C397.265,159.359 397.452,152.31 397.888,151.713C404.484,142.692 413.02,149.396 413.147,160.825C413.276,172.399 412.771,168.099 412.978,168.358C413.297,168.756 413.999,168.7 414.318,169.098Z" style="fill:white;"/>
                </g>
                <g transform="matrix(1.385742,0,0,1.385742,825.737072,439)">
                    <path d="M237.85,200.554C239.909,191.549 239.988,188.891 245.863,177.705C252.585,164.905 267.443,153.052 280.479,149.43C332.389,135.006 364.504,172.75 363.26,212.481C363.047,219.271 353.6,216.541 308.501,216.934C256.765,217.385 253.969,215.281 254.166,219.487C255.55,249.157 280.939,268.825 307.221,267.426C320.506,266.719 334.018,260.63 344.775,247.73C347.359,244.63 353.121,234.664 356.347,236.408C361.806,239.359 358.947,246.471 354.23,254.268C344.931,269.641 327.279,280.259 307.502,281.56C290.565,282.675 273.168,278.233 260.687,267.293C231.261,241.499 237.473,205.64 237.85,200.554ZM257.259,191.416C253.218,203.27 255.472,203.688 256.458,203.735C261.017,203.954 335.621,203.818 342.505,203.805C347.089,203.797 346.258,200.08 344.084,192.638C338.74,174.353 323.091,161.788 304.472,160.93C266.96,159.201 257.839,190.134 257.259,191.416Z" style="fill:white;"/>
                </g>
                <g transform="matrix(1.385742,0,0,1.385742,835.737072,404)">
                    <path d="M37.763,129.506C37.769,129.417 37.342,118.271 42.677,107.588C46.166,100.602 50.954,96.695 51.873,95.945C67.971,82.811 72.026,85.443 192.5,85.299C216.489,85.27 222.709,83.17 221.209,93.454C209.428,174.213 77.499,215.823 62.952,287.581C61.675,293.879 65.766,292.538 79.5,292.47C161.166,292.066 171.936,294.954 186.239,286.062C208.477,272.236 207.385,248.76 214.709,255.248C218.327,258.454 216.216,305.883 168.503,306.754C166.183,306.796 42.071,306.791 39.484,306.734C31.708,306.561 35.75,290.638 37.475,283.494C54.165,214.369 144.752,176.649 179.037,124.184C187.985,110.49 190.792,101.032 190.699,100.452C190.501,99.219 185.01,99.205 184.504,99.204C176.903,99.185 100.855,98.99 89.493,99.195C52.164,99.869 46.61,133.094 43.339,135.231C38.113,138.645 37.787,130.145 37.763,129.506Z" style="fill:white;"/>
                </g>
            </g>
        </g>
    </g>
</svg>
